<svg width="20" height="19" viewBox="0 0 20 19" fill="none" xmlns="http://www.w3.org/2000/svg">
<path fill-rule="evenodd" clip-rule="evenodd" d="M17 4H14V3C14 1.34315 12.6569 0 11 0H9C7.34315 0 6 1.34315 6 3V4H3C2.20435 4 1.44129 4.31607 0.87868 4.87868C0.31607 5.44129 0 6.20435 0 7V16C0 17.6569 1.34315 19 3 19H17C18.6569 19 20 17.6569 20 16V7C20 5.34315 18.6569 4 17 4ZM8 3C8 2.44772 8.44771 2 9 2H11C11.5523 2 12 2.44772 12 3V4H8V3ZM18 16C18 16.5523 17.5523 17 17 17H3C2.44772 17 2 16.5523 2 16V10.5C4.54626 11.5101 7.26069 12.0293 10 12.03C12.7392 12.0283 15.4535 11.5092 18 10.5V16ZM18 8.31C12.9018 10.5497 7.09819 10.5497 2 8.31V7C2 6.44772 2.44772 6 3 6H17C17.5523 6 18 6.44772 18 7V8.31Z" fill="#CBC9D2"/>
</svg>
