<svg width="18" height="15" viewBox="0 0 18 15" fill="none" xmlns="http://www.w3.org/2000/svg">
<path id="Shape" fill-rule="evenodd" clip-rule="evenodd" d="M14.956 2.63931H13.8299L13.5484 1.75955C13.1743 0.701496 12.172 -0.00430641 11.0498 1.97769e-05H6.54544C5.41167 0.00214083 4.40593 0.728115 4.04691 1.80353L3.76539 2.6833H2.63929C1.18165 2.6833 0 3.86495 0 5.32259V12.3607C0 13.8183 1.18165 15 2.63929 15H14.956C16.4136 15 17.5953 13.8183 17.5953 12.3607V5.32259C17.6071 4.61501 17.3342 3.93234 16.838 3.42783C16.3417 2.92331 15.6636 2.63921 14.956 2.63931ZM15.8357 12.3167C15.8357 12.8026 15.4419 13.1965 14.956 13.1965H2.63929C2.15341 13.1965 1.75953 12.8026 1.75953 12.3167V5.2786C1.75953 4.79272 2.15341 4.39884 2.63929 4.39884H4.39882C4.79308 4.41941 5.15278 4.17482 5.27858 3.8006L5.75365 2.35778C5.87468 1.99945 6.2112 1.75857 6.58943 1.75955H11.0938C11.472 1.75857 11.8086 1.99945 11.9296 2.35778L12.4047 3.8006C12.5202 4.14404 12.8345 4.38151 13.1964 4.39884H14.956C15.4419 4.39884 15.8357 4.79272 15.8357 5.2786V12.3167ZM8.79763 4.39884C6.85411 4.39884 5.27858 5.97437 5.27858 7.91789C5.27858 9.86141 6.85411 11.4369 8.79763 11.4369C10.7411 11.4369 12.3167 9.86141 12.3167 7.91789C12.3167 6.98458 11.9459 6.08949 11.286 5.42954C10.626 4.76959 9.73094 4.39884 8.79763 4.39884ZM8.79763 9.67741C7.82587 9.67741 7.0381 8.88965 7.0381 7.91789C7.0381 6.94613 7.82587 6.15836 8.79763 6.15836C9.76939 6.15836 10.5572 6.94613 10.5572 7.91789C10.5572 8.88965 9.76939 9.67741 8.79763 9.67741Z" fill="#C6473F"/>
</svg>
