<svg width="18" height="20" viewBox="0 0 18 20" fill="none" xmlns="http://www.w3.org/2000/svg">
<path id="Shape" fill-rule="evenodd" clip-rule="evenodd" d="M4.98516 0C4.39169 0 4.03561 0.441543 4.03561 0.985163V1.97033H2.96736C1.42433 1.97033 0 3.29377 0 4.92582V6.89614V16.749C0 18.381 1.42433 19.7045 2.96736 19.7045H14.8368C16.4985 19.7045 17.8042 18.381 17.8042 16.749V6.89614V4.92582C17.8042 3.29377 16.4985 1.97033 14.8368 1.97033H13.8872V0.985163C13.8872 0.441543 13.4125 0 12.819 0C12.3442 0 11.8694 0.441543 11.8694 0.985163V1.97033H5.93472V0.985163C5.93472 0.441543 5.57864 0 4.98516 0ZM12.819 3.94065H4.98516H2.96736C2.49258 3.94065 2.0178 4.3822 2.0178 4.92582V5.91098H15.7864V4.92582C15.7864 4.3822 15.4303 3.94065 14.8368 3.94065H12.819ZM2.0178 16.749V7.88131H15.7864V16.749C15.7864 17.2926 15.4303 17.7341 14.8368 17.7341H2.96736C2.49258 17.7341 2.0178 17.2926 2.0178 16.749ZM4.03561 10.8368C4.03561 10.2932 4.39169 9.85163 4.98516 9.85163H7.00297C7.47774 9.85163 7.95252 10.2932 7.95252 10.8368V12.8071C7.95252 13.3519 7.47774 13.7935 7.00297 13.7935H4.98516C4.39169 13.7935 4.03561 13.3519 4.03561 12.8071V10.8368Z" fill="#433C60"/>
</svg>
