<svg width="27" height="27" viewBox="0 0 27 27" fill="none" xmlns="http://www.w3.org/2000/svg">
<path id="Shape" fill-rule="evenodd" clip-rule="evenodd" d="M13.5 0C6.99398 0 3.25301 4.79953 2.76506 9.65924C1.13855 10.1976 0 11.7134 0 13.4992V16.199C0 18.4353 1.78916 20.2488 3.90361 20.2488C6.18072 20.2488 7.96988 18.4353 7.96988 16.199V13.4992C7.96988 11.9037 7.15663 10.5229 5.69277 9.86254C6.18072 6.37715 8.45783 2.69984 13.5 2.69984C18.3795 2.69984 20.8193 6.37715 21.1446 9.86254C19.6807 10.5229 18.8675 11.9037 18.8675 13.4992V16.199C18.8675 17.3993 19.3554 18.476 20.1687 19.2176V21.0864C20.1687 22.8608 18.7048 24.2985 16.9157 24.2985H16.1024C15.4518 24.2985 14.8012 24.9036 14.8012 25.6485C14.8012 26.395 15.4518 27 16.1024 27H16.9157C20.1687 27 22.9337 24.3522 22.9337 21.0864V20.2488C25.0482 20.2488 27 18.4353 27 16.199V13.4992C27 11.7134 25.6988 10.1976 24.2349 9.65924C23.5843 4.79953 19.8434 0 13.5 0ZM5.36747 13.4992C5.36747 12.7543 4.71687 12.1493 3.90361 12.1493C3.25301 12.1493 2.60241 12.7543 2.60241 13.4992V16.199C2.60241 16.9455 3.25301 17.5489 3.90361 17.5489C4.71687 17.5489 5.36747 16.9455 5.36747 16.199V13.4992ZM22.9337 12.1493C23.5843 12.1493 24.2349 12.7543 24.2349 13.4992V16.199C24.2349 16.9455 23.5843 17.5489 22.9337 17.5489C22.1205 17.5489 21.4699 16.9455 21.4699 16.199V13.4992C21.4699 12.7543 22.1205 12.1493 22.9337 12.1493Z" fill="#403E4A"/>
</svg>
