<svg width="18" height="21" viewBox="0 0 18 21" fill="none" xmlns="http://www.w3.org/2000/svg">
<path fill-rule="evenodd" clip-rule="evenodd" d="M17.0001 6.02393L11.0001 0.763932C9.86129 -0.254644 8.1389 -0.254644 7.00009 0.763932L1.00009 6.02393C0.357539 6.5986 -0.00675752 7.42191 9.49605e-05 8.28393V17.0239C9.49605e-05 18.6808 1.34324 20.0239 3.0001 20.0239H15.0001C16.6569 20.0239 18.0001 18.6808 18.0001 17.0239V8.27393C18.0041 7.41539 17.64 6.59629 17.0001 6.02393ZM11.0001 18.0239H7.00009V13.0239C7.00009 12.4716 7.44781 12.0239 8.0001 12.0239H10.0001C10.5524 12.0239 11.0001 12.4716 11.0001 13.0239V18.0239ZM16.0001 17.0239C16.0001 17.5762 15.5524 18.0239 15.0001 18.0239H13.0001V13.0239C13.0001 11.3671 11.6569 10.0239 10.0001 10.0239H8.0001C6.34324 10.0239 5.00009 11.3671 5.00009 13.0239V18.0239H3.00009C2.44781 18.0239 2.00009 17.5762 2.00009 17.0239V8.27393C2.00046 7.9867 2.12431 7.7135 2.34009 7.52393L8.3401 2.27393C8.7176 1.94229 9.28259 1.94229 9.6601 2.27393L15.6601 7.52393C15.8759 7.7135 15.9997 7.9867 16.0001 8.27393V17.0239Z" fill="#CBC9D2"/>
</svg>
