<svg width="20" height="20" viewBox="0 0 20 20" fill="none" xmlns="http://www.w3.org/2000/svg">
<path id="Shape" fill-rule="evenodd" clip-rule="evenodd" d="M9.83704 19.6753C4.38519 19.6753 0 15.2699 0 9.83704C0 4.40415 4.38519 0 9.83704 0C15.2889 0 19.6741 4.40415 19.6741 9.83704C19.6741 15.2699 15.2889 19.6753 9.83704 19.6753ZM9.83704 1.96741C5.45185 1.96741 1.8963 5.49096 1.8963 9.83704C1.8963 14.1843 5.45185 17.7067 9.83704 17.7067C14.2222 17.7067 17.6593 14.1843 17.6593 9.83704C17.6593 5.49096 14.2222 1.96741 9.83704 1.96741ZM9.83704 8.608C10.5481 8.608 11.0222 9.15793 11.0222 9.83704V13.7719C11.0222 14.451 10.5481 15.0021 9.83704 15.0021C9.12593 15.0021 8.53333 14.451 8.53333 13.7719V9.83704C8.53333 9.15793 9.12593 8.608 9.83704 8.608ZM9.83704 4.91852C9.12593 4.91852 8.53333 5.46963 8.53333 6.14874C8.53333 6.82785 9.12593 7.37778 9.83704 7.37778C10.5481 7.37778 11.0222 6.82785 11.0222 6.14874C11.0222 5.46963 10.5481 4.91852 9.83704 4.91852Z" fill="#A29EAE"/>
</svg>
