<svg width="71" height="71" viewBox="0 0 71 71" fill="none" xmlns="http://www.w3.org/2000/svg">
<path fill-rule="evenodd" clip-rule="evenodd" d="M35.0338 0C15.6852 0 0 15.6852 0 35.0338C0 53.7185 14.6272 68.9869 33.0555 70.0127C32.8932 69.6852 32.802 69.3161 32.802 68.9258V46.9972C32.802 40.9848 27.928 36.1108 21.9156 36.1108H13.1896C11.9964 36.1108 11.0292 35.1435 11.0292 33.9504C11.0292 32.7572 11.9964 31.79 13.1896 31.79H58.6168C59.8099 31.79 60.7772 32.7572 60.7772 33.9504C60.7772 35.1435 59.8099 36.1108 58.6168 36.1108H46.1757C41.4984 36.1108 37.7068 39.9024 37.7068 44.5797V68.9258C37.7068 69.3049 37.6207 69.664 37.4671 69.9845C55.6806 68.7349 70.0676 53.5645 70.0676 35.0338C70.0676 15.6852 54.3825 0 35.0338 0Z" fill="url(#paint0_linear_1_5254)"/>
<defs>
<linearGradient id="paint0_linear_1_5254" x1="43.6674" y1="-35.7282" x2="-27.7901" y2="34.3405" gradientUnits="userSpaceOnUse">
<stop stop-color="#F76B5E"/>
<stop offset="1" stop-color="#B63B34"/>
</linearGradient>
</defs>
</svg>
