<svg width="16" height="12" viewBox="0 0 16 12" fill="none" xmlns="http://www.w3.org/2000/svg">
<path d="M15.6335 0.347263C15.4197 0.125013 15.1287 0 14.8252 0C14.5216 0 14.2306 0.125013 14.0169 0.347263L5.53521 9.10519L1.97178 5.41888C1.67283 5.12109 1.24252 5.01038 0.842947 5.12846C0.443377 5.24654 0.135248 5.57547 0.0346297 5.99134C-0.0659884 6.40721 0.0561907 6.84684 0.355143 7.14464L4.72689 11.6527C4.94066 11.875 5.23165 12 5.53521 12C5.83877 12 6.12976 11.875 6.34353 11.6527L15.6335 2.07302C15.8671 1.85077 16 1.53792 16 1.21014C16 0.882366 15.8671 0.569516 15.6335 0.347263Z" fill="white"/>
</svg>
