<svg width="30" height="30" viewBox="0 0 30 30" fill="none" xmlns="http://www.w3.org/2000/svg">
<path id="Shape" fill-rule="evenodd" clip-rule="evenodd" d="M0 15C0 6.71371 6.71371 0 15 0C23.2863 0 30 6.71371 30 15C30 23.2863 23.2863 30 15 30C6.71371 30 0 23.2863 0 15ZM20.0285 21.6593L22.4545 9.84219C22.6691 8.80712 22.0909 8.39432 21.4292 8.64077L7.17708 14.3213C6.19951 14.7157 6.2174 15.2763 7.01018 15.5351L10.6582 16.7119L19.1224 11.2038C19.5158 10.9327 19.8794 11.0867 19.5814 11.3578L12.7325 17.7531L12.4702 21.6408C12.8517 21.6408 13.0186 21.4683 13.2153 21.2649L14.9976 19.4905L18.6933 22.3062C19.3668 22.7005 19.8496 22.4972 20.0285 21.6593Z" fill="url(#paint0_linear_1_5678)"/>
<defs>
<linearGradient id="paint0_linear_1_5678" x1="8.20158" y1="-8.37428" x2="-8.54698" y2="21.6257" gradientUnits="userSpaceOnUse">
<stop stop-color="#2EA5E2"/>
<stop offset="1" stop-color="#0D83BE"/>
</linearGradient>
</defs>
</svg>
