<svg width="20" height="22" viewBox="0 0 20 22" fill="none" xmlns="http://www.w3.org/2000/svg">
<path fill-rule="evenodd" clip-rule="evenodd" d="M10 0C6.14453 0 3 3.14453 3 7C3 9.41016 4.23047 11.5508 6.09375 12.8125C2.52734 14.3438 0 17.8828 0 22H2C2 19.1094 3.52734 16.5938 5.8125 15.1875C6.48438 16.8359 8.12109 18 10 18C11.8789 18 13.5156 16.8359 14.1875 15.1875C16.4727 16.5938 18 19.1094 18 22H20C20 17.8828 17.4727 14.3438 13.9062 12.8125C15.7695 11.5508 17 9.41016 17 7C17 3.14453 13.8555 0 10 0ZM10 2C12.7734 2 15 4.22656 15 7C15 9.77344 12.7734 12 10 12C7.22656 12 5 9.77344 5 7C5 4.22656 7.22656 2 10 2ZM10 14C10.8203 14 11.6016 14.1172 12.3438 14.3438C11.9961 15.3086 11.0898 16 10 16C8.91016 16 8.00391 15.3086 7.65625 14.3438C8.39844 14.1172 9.17969 14 10 14Z" fill="#CBC9D2"/>
</svg>
