<svg width="25" height="25" viewBox="0 0 25 25" fill="none" xmlns="http://www.w3.org/2000/svg">
<path id="Shape" fill-rule="evenodd" clip-rule="evenodd" d="M12.5 0C5.59644 0 0 5.59644 0 12.5C0 19.4036 5.59644 25 12.5 25C19.4036 25 25 19.4036 25 12.5C25 9.18479 23.683 6.00537 21.3388 3.66117C18.9946 1.31696 15.8152 0 12.5 0ZM11.25 6.725L17.5 10.3375C18.271 10.7847 18.7456 11.6087 18.7456 12.5C18.7456 13.3913 18.271 14.2153 17.5 14.6625L11.25 18.275C10.4765 18.7216 9.5235 18.7216 8.75 18.275C7.97729 17.8289 7.50092 17.0047 7.5 16.1125V8.8875C7.50092 7.99479 7.97777 7.17032 8.75111 6.72436C9.52444 6.2784 10.4769 6.27865 11.25 6.725ZM10 16.1125L16.25 12.5L10 8.8875V16.1125ZM2.5 12.5C2.5 18.0228 6.97715 22.5 12.5 22.5C15.1522 22.5 17.6957 21.4464 19.5711 19.5711C21.4464 17.6957 22.5 15.1522 22.5 12.5C22.5 6.97715 18.0228 2.5 12.5 2.5C6.97715 2.5 2.5 6.97715 2.5 12.5Z" fill="#D1423A"/>
</svg>
